<svg width="451" height="101" viewBox="0 0 451 101" fill="none" xmlns="http://www.w3.org/2000/svg">
<path d="M331.676 53.2409C331.676 54.3862 331.601 55.417 331.451 56.3332H308.654C308.842 58.6237 309.63 60.418 311.019 61.716C312.407 63.014 314.114 63.6629 316.141 63.6629C319.068 63.6629 321.15 62.3841 322.388 59.8263H330.888C329.987 62.8803 328.261 65.3999 325.709 67.3851C323.158 69.3321 320.024 70.3055 316.309 70.3055C313.307 70.3055 310.606 69.6375 308.204 68.3013C305.84 66.927 303.983 64.9991 302.632 62.5177C301.318 60.0362 300.662 57.173 300.662 53.9281C300.662 50.645 301.318 47.7627 302.632 45.2813C303.945 42.7998 305.784 40.891 308.148 39.5549C310.512 38.2187 313.232 37.5507 316.309 37.5507C319.274 37.5507 321.919 38.1996 324.246 39.4976C326.61 40.7956 328.43 42.6471 329.706 45.0522C331.019 47.4191 331.676 50.1487 331.676 53.2409ZM323.514 50.9504C323.477 48.8889 322.745 47.2473 321.319 46.0257C319.893 44.7659 318.148 44.136 316.084 44.136C314.133 44.136 312.482 44.7468 311.131 45.9684C309.818 47.1519 309.011 48.8125 308.711 50.9504H323.514Z" fill="#29313D"/>
<path d="M290.041 44.6513V59.998C290.041 61.0669 290.285 61.8495 290.772 62.3458C291.298 62.8039 292.161 63.033 293.362 63.033H297.02V69.7901H292.067C285.425 69.7901 282.104 66.507 282.104 59.9407V44.6513H278.389V38.066H282.104V30.2208H290.041V38.066H297.02V44.6513H290.041Z" fill="#29313D"/>
<path d="M240.692 53.8136C240.692 50.6068 241.311 47.7627 242.549 45.2813C243.825 42.7998 245.533 40.891 247.672 39.5549C249.848 38.2187 252.268 37.5507 254.933 37.5507C257.259 37.5507 259.285 38.0279 261.012 38.9823C262.775 39.9366 264.182 41.1392 265.233 42.5899V38.066H273.17V69.7902H265.233V65.1518C264.22 66.6407 262.813 67.8814 261.012 68.8739C259.248 69.8283 257.203 70.3055 254.876 70.3055C252.25 70.3055 249.848 69.6184 247.672 68.244C245.533 66.8697 243.825 64.9418 242.549 62.4604C241.311 59.9408 240.692 57.0585 240.692 53.8136ZM265.233 53.9281C265.233 51.9811 264.858 50.3205 264.107 48.9462C263.357 47.5336 262.344 46.4647 261.068 45.7394C259.792 44.9759 258.422 44.5941 256.959 44.5941C255.495 44.5941 254.145 44.9568 252.906 45.6821C251.668 46.4075 250.655 47.4764 249.867 48.8889C249.116 50.2632 248.741 51.9048 248.741 53.8136C248.741 55.7224 249.116 57.4021 249.867 58.8528C250.655 60.2653 251.668 61.3533 252.906 62.1168C254.182 62.8803 255.533 63.2621 256.959 63.2621C258.422 63.2621 259.792 62.8994 261.068 62.1741C262.344 61.4106 263.357 60.3416 264.107 58.9673C264.858 57.5548 265.233 55.8751 265.233 53.9281Z" fill="#29313D"/>
<path d="M234.927 29.8201V69.7902H227.047V43.7924L216.522 69.7902H210.555L199.973 43.7924V69.7902H192.093V29.8201H201.043L213.538 59.54L226.034 29.8201H234.927Z" fill="#29313D"/>
<path d="M187.845 38.066L168.539 84.7933H160.152L166.907 68.9885L154.411 38.066H163.248L171.297 60.2271L179.458 38.066H187.845Z" fill="#29313D"/>
<path d="M138.08 37.6078C141.795 37.6078 144.797 38.8103 147.086 41.2154C149.375 43.5823 150.52 46.9036 150.52 51.1793V69.79H142.639V52.2673C142.639 49.7477 142.02 47.8198 140.782 46.4837C139.544 45.1093 137.855 44.4222 135.716 44.4222C133.54 44.4222 131.814 45.1093 130.538 46.4837C129.299 47.8198 128.68 49.7477 128.68 52.2673V69.79H120.8V38.0659H128.68V42.0171C129.731 40.6428 131.063 39.5738 132.677 38.8103C134.328 38.0086 136.129 37.6078 138.08 37.6078Z" fill="#29313D"/>
<path d="M109.131 34.2866C107.742 34.2866 106.579 33.8476 105.641 32.9696C104.74 32.0534 104.29 30.9272 104.29 29.591C104.29 28.2549 104.74 27.1478 105.641 26.2697C106.579 25.3535 107.742 24.8954 109.131 24.8954C110.519 24.8954 111.664 25.3535 112.564 26.2697C113.502 27.1478 113.971 28.2549 113.971 29.591C113.971 30.9272 113.502 32.0534 112.564 32.9696C111.664 33.8476 110.519 34.2866 109.131 34.2866ZM113.014 38.0661V69.7902H105.134V38.0661H113.014Z" fill="#29313D"/>
<path d="M64.9604 53.8136C64.9604 50.6068 65.5795 47.7627 66.8179 45.2813C68.0937 42.7998 69.8011 40.891 71.94 39.5549C74.1164 38.2187 76.5367 37.5507 79.201 37.5507C81.5275 37.5507 83.5538 38.0279 85.28 38.9823C87.0436 39.9366 88.4508 41.1392 89.5015 42.5899V38.066H97.4379V69.7902H89.5015V65.1518C88.4883 66.6407 87.0811 67.8814 85.28 68.8739C83.5163 69.8283 81.4712 70.3055 79.1447 70.3055C76.518 70.3055 74.1164 69.6184 71.94 68.244C69.8011 66.8697 68.0937 64.9418 66.8179 62.4604C65.5795 59.9408 64.9604 57.0585 64.9604 53.8136ZM89.5015 53.9281C89.5015 51.9811 89.1262 50.3205 88.3757 48.9462C87.6252 47.5336 86.6121 46.4647 85.3362 45.7394C84.0604 44.9759 82.6908 44.5941 81.2273 44.5941C79.7638 44.5941 78.413 44.9568 77.1746 45.6821C75.9363 46.4075 74.9232 47.4764 74.1352 48.8889C73.3847 50.2632 73.0094 51.9048 73.0094 53.8136C73.0094 55.7224 73.3847 57.4021 74.1352 58.8528C74.9232 60.2653 75.9363 61.3533 77.1746 62.1168C78.4505 62.8803 79.8014 63.2621 81.2273 63.2621C82.6908 63.2621 84.0604 62.8994 85.3362 62.1741C86.6121 61.4106 87.6252 60.3416 88.3757 58.9673C89.1262 57.5548 89.5015 55.8751 89.5015 53.9281Z" fill="#29313D"/>
<path d="M52.1103 42.9906C53.1234 41.3108 54.4368 39.9938 56.0504 39.0394C57.7014 38.085 59.5777 37.6078 61.679 37.6078V46.0256H59.5964C57.1198 46.0256 55.2436 46.6173 53.9677 47.8007C52.7294 48.9842 52.1103 51.0457 52.1103 53.9852V69.79H44.2301V38.0659H52.1103V42.9906Z" fill="#29313D"/>
<path d="M30.351 49.2898C32.5649 49.7097 34.3848 50.8359 35.8108 52.6683C37.2367 54.5008 37.9497 56.6004 37.9497 58.9673C37.9497 61.1052 37.4243 62.9949 36.3736 64.6364C35.3605 66.2398 33.8783 67.4996 31.927 68.4159C29.9757 69.3321 27.6679 69.7902 25.0037 69.7902H8.06134V29.8201H24.272C26.9362 29.8201 29.2252 30.2591 31.139 31.1371C33.0902 32.0152 34.5537 33.2368 35.5293 34.802C36.5425 36.3672 37.0491 38.1424 37.0491 40.1275C37.0491 42.4563 36.4299 44.4032 35.1916 45.9685C33.9908 47.5337 32.3773 48.6408 30.351 49.2898ZM15.9415 46.312H23.1462C25.0225 46.312 26.4672 45.8921 27.4803 45.0522C28.4935 44.1742 29.0001 42.9335 29.0001 41.3301C29.0001 39.7267 28.4935 38.486 27.4803 37.6079C26.4672 36.7299 25.0225 36.2909 23.1462 36.2909H15.9415V46.312ZM23.878 63.2621C25.7917 63.2621 27.2739 62.804 28.3246 61.8878C29.4128 60.9716 29.9569 59.6736 29.9569 57.9938C29.9569 56.2759 29.3941 54.9398 28.2683 53.9854C27.1426 52.9928 25.6229 52.4965 23.7091 52.4965H15.9415V63.2621H23.878Z" fill="#29313D"/>
<path d="M397.516 15.1826C379.948 15.1826 367.345 29.2083 365.891 44.2598C364.708 56.4311 370.253 68.0896 380.336 74.6981C382.682 76.2367 384.214 78.7026 384.66 81.4643H383.206V84.6995H384.796V87.9347H383.206V91.1501H386.386C386.386 95.6083 389.954 99.2381 394.336 99.2381H400.696C405.078 99.2381 408.646 95.6083 408.646 91.1501H411.826V87.9149H410.236V84.6798H411.826V81.4446H410.372C410.798 78.6631 412.311 76.217 414.637 74.7178C423.828 68.7406 429.296 58.5616 429.296 47.4949C429.296 29.6817 415.045 15.1826 397.516 15.1826ZM400.696 96.0029H394.336C391.699 96.0029 389.566 93.8329 389.566 91.1501H405.466C405.466 93.8329 403.314 96.0029 400.696 96.0029ZM407.056 87.9149H387.995V84.6798H407.056V87.9149ZM412.912 72.0152C409.674 74.126 407.599 77.5781 407.133 81.4643H387.879C387.414 77.5781 385.319 74.1062 382.062 71.9758C372.987 66.038 368.004 55.5434 369.051 44.5754C370.35 31.0429 382.236 18.4178 397.516 18.4178C413.28 18.4178 426.116 31.4769 426.116 47.5147C426.116 57.4766 421.172 66.6298 412.912 72.0152Z" fill="#6600CC"/>
<path d="M445.365 44.2795H435.825V47.5147H445.365V44.2795Z" fill="#6600CC"/>
<path d="M359.225 44.2793H349.685V47.5145H359.225V44.2793Z" fill="#6600CC"/>
<path d="M399.517 10.6789L399.517 0.973389L396.337 0.973389L396.337 10.6789L399.517 10.6789Z" fill="#6600CC"/>
<path d="M423.987 75.1032L436.349 87.6801L438.597 85.3925L426.235 72.8156L423.987 75.1032Z" fill="#6600CC"/>
<path d="M372.805 18.4797L360.368 5.82642L358.119 8.11401L370.557 20.7673L372.805 18.4797Z" fill="#6600CC"/>
<path d="M356.366 85.4655L358.614 87.7531L371.045 75.1065L368.796 72.8189L356.366 85.4655Z" fill="#6600CC"/>
<path d="M422.238 18.475L424.486 20.7626L436.955 8.07699L434.707 5.78939L422.238 18.475Z" fill="#6600CC"/>
<path fill-rule="evenodd" clip-rule="evenodd" d="M385.835 44.7287C385.848 46.6759 387.428 48.9348 391.198 48.9348V50.0979V51.2611C386.365 51.2611 383.571 48.1587 383.548 44.7445C383.537 43.0802 384.202 41.423 385.527 40.1917C386.856 38.9578 388.778 38.2122 391.198 38.2122V40.5385C389.245 40.5385 387.905 41.1332 387.069 41.9097C386.23 42.689 385.828 43.7124 385.835 44.7287ZM398.078 60.0142V69.2089H395.791V58.8511C395.791 58.2087 396.303 57.6879 396.934 57.6879H403.244C404.412 57.6879 405.181 57.2643 405.667 56.7099C406.17 56.1344 406.44 55.3333 406.429 54.489C406.419 53.6444 406.129 52.8309 405.61 52.2431C405.108 51.6756 404.346 51.2611 403.244 51.2611H391.198V50.0979V48.9348H403.244C404.974 48.9348 406.362 49.6144 407.31 50.6881C408.241 51.7415 408.699 53.1163 408.716 54.4599C408.732 55.804 408.307 57.1911 407.374 58.2568C406.423 59.3437 405.015 60.0142 403.244 60.0142H398.078Z" fill="#6600CC"/>
<path fill-rule="evenodd" clip-rule="evenodd" d="M403.315 45.061V42.7346H412.994C415.108 42.7346 416.781 43.5179 417.918 44.7737C419.039 46.0114 419.574 47.6356 419.569 49.2266C419.563 50.8175 419.018 52.4383 417.897 53.6726C416.76 54.925 415.093 55.7106 412.994 55.7106H386.968V53.3843H412.994C414.498 53.3843 415.542 52.8386 416.217 52.0943C416.91 51.3318 417.278 50.2902 417.282 49.2186C417.286 48.1472 416.924 47.109 416.237 46.3499C415.566 45.6089 414.519 45.061 412.994 45.061H403.315Z" fill="#6600CC"/>
<path fill-rule="evenodd" clip-rule="evenodd" d="M385.391 33.9724C382.683 33.2696 380.038 34.5416 378.629 36.6557C377.495 38.3557 377.165 40.5602 378.044 42.7349C376.203 45.6795 375.411 48.4264 375.492 50.9124C375.577 53.51 376.613 55.7096 378.199 57.4338C381.046 60.5304 385.665 62.1122 389.982 61.9901V64.8324H392.269V60.7476C392.269 60.4177 392.131 60.1033 391.89 59.8827C391.649 59.6621 391.327 59.556 391.004 59.591C386.913 60.0345 382.412 58.6103 379.869 55.8445C378.618 54.485 377.842 52.8086 377.778 50.835C377.723 49.1628 378.177 47.1977 379.404 44.9552C379.565 45.1463 379.737 45.3356 379.921 45.5227L381.538 43.8777C379.386 41.6881 379.538 39.4366 380.521 37.9615C381.559 36.4046 383.547 35.6153 385.439 36.4393C385.862 36.6236 386.295 36.8931 386.725 37.2679L388.213 35.5016C387.983 35.3011 387.748 35.1187 387.509 34.954C388.364 33.7902 389.656 32.634 391.268 32.1395C393 31.6084 395.324 31.7747 398.188 33.9693C397.977 34.1888 397.779 34.4234 397.595 34.6728L399.426 36.0672C400.498 34.6101 402.371 33.8632 404.072 34.0688C405.689 34.2644 407.153 35.3157 407.59 37.596C407.71 38.2215 407.755 38.9535 407.695 39.8019L409.976 39.9701C410.01 39.4851 410.017 39.0194 409.997 38.5733C411.068 38.684 412.257 39.0037 413.204 39.6381C413.852 40.0721 414.372 40.6419 414.691 41.3899C415.01 42.1386 415.164 43.1475 414.948 44.516L417.206 44.8844C417.477 43.1601 417.312 41.6899 416.789 40.4638C416.265 39.2371 415.419 38.3365 414.462 37.6951C412.931 36.6697 411.083 36.2803 409.599 36.2122C408.74 33.492 406.639 32.0365 404.341 31.7587C402.92 31.5868 401.423 31.8644 400.106 32.5438C396.563 29.6135 393.316 29.0816 390.608 29.9122C388.221 30.6445 386.455 32.3771 385.391 33.9724Z" fill="#6600CC"/>
<path fill-rule="evenodd" clip-rule="evenodd" d="M397.077 71.8063C397.478 71.8063 397.802 71.4763 397.802 71.0691C397.802 70.6619 397.478 70.3318 397.077 70.3318C396.677 70.3318 396.353 70.6619 396.353 71.0691C396.353 71.4763 396.677 71.8063 397.077 71.8063ZM397.077 74.1327C398.741 74.1327 400.089 72.7611 400.089 71.0691C400.089 69.3771 398.741 68.0055 397.077 68.0055C395.414 68.0055 394.066 69.3771 394.066 71.0691C394.066 72.7611 395.414 74.1327 397.077 74.1327Z" fill="#6600CC"/>
<path fill-rule="evenodd" clip-rule="evenodd" d="M391.054 67.5389C391.454 67.5389 391.778 67.2088 391.778 66.8016C391.778 66.3945 391.454 66.0644 391.054 66.0644C390.653 66.0644 390.329 66.3945 390.329 66.8016C390.329 67.2088 390.653 67.5389 391.054 67.5389ZM391.054 69.8652C392.717 69.8652 394.065 68.4936 394.065 66.8016C394.065 65.1097 392.717 63.738 391.054 63.738C389.391 63.738 388.042 65.1097 388.042 66.8016C388.042 68.4936 389.391 69.8652 391.054 69.8652Z" fill="#6600CC"/>
<path fill-rule="evenodd" clip-rule="evenodd" d="M384.932 55.0842C385.332 55.0842 385.657 54.7541 385.657 54.3469C385.657 53.9397 385.332 53.6097 384.932 53.6097C384.532 53.6097 384.207 53.9397 384.207 54.3469C384.207 54.7541 384.532 55.0842 384.932 55.0842ZM384.932 57.4105C386.595 57.4105 387.944 56.0389 387.944 54.3469C387.944 52.6549 386.595 51.2833 384.932 51.2833C383.269 51.2833 381.921 52.6549 381.921 54.3469C381.921 56.0389 383.269 57.4105 384.932 57.4105Z" fill="#6600CC"/>
<path fill-rule="evenodd" clip-rule="evenodd" d="M393.195 40.1854C393.596 40.1854 393.92 39.8553 393.92 39.4481C393.92 39.0409 393.596 38.7109 393.195 38.7109C392.795 38.7109 392.471 39.0409 392.471 39.4481C392.471 39.8553 392.795 40.1854 393.195 40.1854ZM393.195 42.5117C394.858 42.5117 396.207 41.1401 396.207 39.4481C396.207 37.7561 394.858 36.3845 393.195 36.3845C391.532 36.3845 390.184 37.7561 390.184 39.4481C390.184 41.1401 391.532 42.5117 393.195 42.5117Z" fill="#6600CC"/>
<path fill-rule="evenodd" clip-rule="evenodd" d="M401.46 44.6533C401.86 44.6533 402.185 44.3232 402.185 43.916C402.185 43.5088 401.86 43.1788 401.46 43.1788C401.06 43.1788 400.735 43.5088 400.735 43.916C400.735 44.3232 401.06 44.6533 401.46 44.6533ZM401.46 46.9796C403.123 46.9796 404.471 45.608 404.471 43.916C404.471 42.224 403.123 40.8524 401.46 40.8524C399.797 40.8524 398.449 42.224 398.449 43.916C398.449 45.608 399.797 46.9796 401.46 46.9796Z" fill="#6600CC"/>
</svg>
