<svg width="252" height="56" viewBox="0 0 252 56" fill="none" xmlns="http://www.w3.org/2000/svg">
<path d="M185.617 29.7521C185.617 30.3921 185.575 30.9681 185.491 31.4801H172.733C172.838 32.7601 173.279 33.7628 174.056 34.4881C174.833 35.2135 175.789 35.5761 176.923 35.5761C178.561 35.5761 179.726 34.8615 180.419 33.4321H185.176C184.672 35.1388 183.706 36.5468 182.278 37.6561C180.85 38.7441 179.096 39.2881 177.017 39.2881C175.337 39.2881 173.825 38.9148 172.481 38.1681C171.158 37.4001 170.119 36.3228 169.363 34.9361C168.628 33.5495 168.26 31.9495 168.26 30.1361C168.26 28.3015 168.628 26.6908 169.363 25.3041C170.098 23.9175 171.127 22.8508 172.45 22.1041C173.773 21.3575 175.295 20.9841 177.017 20.9841C178.676 20.9841 180.157 21.3468 181.459 22.0721C182.782 22.7975 183.8 23.8321 184.514 25.1761C185.249 26.4988 185.617 28.0241 185.617 29.7521ZM181.049 28.4721C181.028 27.3201 180.619 26.4028 179.821 25.7201C179.023 25.0161 178.046 24.6641 176.891 24.6641C175.799 24.6641 174.875 25.0055 174.119 25.6881C173.384 26.3495 172.933 27.2775 172.765 28.4721H181.049Z" fill="#29313D"/>
<path d="M162.316 24.9522V33.5282C162.316 34.1255 162.453 34.5629 162.726 34.8402C163.02 35.0962 163.503 35.2242 164.175 35.2242H166.222V39.0002H163.45C159.733 39.0002 157.875 37.1655 157.875 33.4962V24.9522H155.796V21.2722H157.875V16.8882H162.316V21.2722H166.222V24.9522H162.316Z" fill="#29313D"/>
<path d="M134.699 30.0721C134.699 28.2801 135.046 26.6908 135.739 25.3041C136.453 23.9175 137.408 22.8508 138.605 22.1041C139.823 21.3575 141.178 20.9841 142.669 20.9841C143.971 20.9841 145.105 21.2508 146.071 21.7841C147.058 22.3175 147.845 22.9895 148.433 23.8001V21.2721H152.875V39.0001H148.433V36.4081C147.866 37.2401 147.079 37.9335 146.071 38.4881C145.084 39.0215 143.939 39.2881 142.637 39.2881C141.167 39.2881 139.823 38.9041 138.605 38.1361C137.408 37.3681 136.453 36.2908 135.739 34.9041C135.046 33.4961 134.699 31.8855 134.699 30.0721ZM148.433 30.1361C148.433 29.0481 148.223 28.1201 147.803 27.3521C147.383 26.5628 146.816 25.9655 146.102 25.5601C145.388 25.1335 144.622 24.9201 143.803 24.9201C142.984 24.9201 142.228 25.1228 141.535 25.5281C140.842 25.9335 140.275 26.5308 139.834 27.3201C139.414 28.0881 139.204 29.0055 139.204 30.0721C139.204 31.1388 139.414 32.0775 139.834 32.8881C140.275 33.6775 140.842 34.2855 141.535 34.7121C142.249 35.1388 143.005 35.3521 143.803 35.3521C144.622 35.3521 145.388 35.1495 146.102 34.7441C146.816 34.3175 147.383 33.7201 147.803 32.9521C148.223 32.1628 148.433 31.2241 148.433 30.1361Z" fill="#29313D"/>
<path d="M131.473 16.6641V39.0001H127.063V24.4721L121.173 39.0001H117.834L111.912 24.4721V39.0001H107.502V16.6641H112.51L119.503 33.2721L126.496 16.6641H131.473Z" fill="#29313D"/>
<path d="M105.124 21.2722L94.3199 47.3842H89.6264L93.4064 38.5522L86.4134 21.2722H91.3589L95.8634 33.6562L100.431 21.2722H105.124Z" fill="#29313D"/>
<path d="M77.2742 21.0161C79.3532 21.0161 81.0332 21.6881 82.3142 23.0321C83.5952 24.3548 84.2357 26.2108 84.2357 28.6001V39.0001H79.8257V29.2081C79.8257 27.8001 79.4792 26.7228 78.7862 25.9761C78.0932 25.2081 77.1482 24.8241 75.9512 24.8241C74.7332 24.8241 73.7672 25.2081 73.0532 25.9761C72.3602 26.7228 72.0137 27.8001 72.0137 29.2081V39.0001H67.6037V21.2721H72.0137V23.4801C72.6017 22.7121 73.3472 22.1148 74.2502 21.6881C75.1742 21.2401 76.1822 21.0161 77.2742 21.0161Z" fill="#29313D"/>
<path d="M61.0731 19.1601C60.2961 19.1601 59.6451 18.9148 59.1201 18.4241C58.6161 17.9121 58.3641 17.2828 58.3641 16.5361C58.3641 15.7894 58.6161 15.1708 59.1201 14.6801C59.6451 14.1681 60.2961 13.9121 61.0731 13.9121C61.8501 13.9121 62.4906 14.1681 62.9946 14.6801C63.5196 15.1708 63.7821 15.7894 63.7821 16.5361C63.7821 17.2828 63.5196 17.9121 62.9946 18.4241C62.4906 18.9148 61.8501 19.1601 61.0731 19.1601ZM63.2466 21.2721V39.0001H58.8366V21.2721H63.2466Z" fill="#29313D"/>
<path d="M36.354 30.0721C36.354 28.2801 36.7005 26.6908 37.3935 25.3041C38.1075 23.9175 39.063 22.8508 40.26 22.1041C41.478 21.3575 42.8325 20.9841 44.3235 20.9841C45.6255 20.9841 46.7595 21.2508 47.7255 21.7841C48.7125 22.3175 49.5 22.9895 50.088 23.8001V21.2721H54.5295V39.0001H50.088V36.4081C49.521 37.2401 48.7335 37.9335 47.7255 38.4881C46.7385 39.0215 45.594 39.2881 44.292 39.2881C42.822 39.2881 41.478 38.9041 40.26 38.1361C39.063 37.3681 38.1075 36.2908 37.3935 34.9041C36.7005 33.4961 36.354 31.8855 36.354 30.0721ZM50.088 30.1361C50.088 29.0481 49.878 28.1201 49.458 27.3521C49.038 26.5628 48.471 25.9655 47.757 25.5601C47.043 25.1335 46.2765 24.9201 45.4575 24.9201C44.6385 24.9201 43.8825 25.1228 43.1895 25.5281C42.4965 25.9335 41.9295 26.5308 41.4885 27.3201C41.0685 28.0881 40.8585 29.0055 40.8585 30.0721C40.8585 31.1388 41.0685 32.0775 41.4885 32.8881C41.9295 33.6775 42.4965 34.2855 43.1895 34.7121C43.9035 35.1388 44.6595 35.3521 45.4575 35.3521C46.2765 35.3521 47.043 35.1495 47.757 34.7441C48.471 34.3175 49.038 33.7201 49.458 32.9521C49.878 32.1628 50.088 31.2241 50.088 30.1361Z" fill="#29313D"/>
<path d="M29.1626 24.0241C29.7296 23.0854 30.4646 22.3494 31.3676 21.8161C32.2916 21.2828 33.3416 21.0161 34.5176 21.0161V25.7201H33.3521C31.9661 25.7201 30.9161 26.0508 30.2021 26.7121C29.5091 27.3734 29.1626 28.5254 29.1626 30.1681V39.0001H24.7526V21.2721H29.1626V24.0241Z" fill="#29313D"/>
<path d="M16.9854 27.5441C18.2244 27.7787 19.2429 28.4081 20.0409 29.4321C20.8389 30.4561 21.2379 31.6294 21.2379 32.9521C21.2379 34.1467 20.9439 35.2027 20.3559 36.1201C19.7889 37.0161 18.9594 37.7201 17.8674 38.2321C16.7754 38.7441 15.4839 39.0001 13.9929 39.0001H4.51141V16.6641H13.5834C15.0744 16.6641 16.3554 16.9094 17.4264 17.4001C18.5184 17.8907 19.3374 18.5734 19.8834 19.4481C20.4504 20.3227 20.7339 21.3147 20.7339 22.4241C20.7339 23.7254 20.3874 24.8134 19.6944 25.6881C19.0224 26.5627 18.1194 27.1814 16.9854 27.5441ZM8.92141 25.8801H12.9534C14.0034 25.8801 14.8119 25.6454 15.3789 25.1761C15.9459 24.6854 16.2294 23.9921 16.2294 23.0961C16.2294 22.2001 15.9459 21.5067 15.3789 21.0161C14.8119 20.5254 14.0034 20.2801 12.9534 20.2801H8.92141V25.8801ZM13.3629 35.3521C14.4339 35.3521 15.2634 35.0961 15.8514 34.5841C16.4604 34.0721 16.7649 33.3467 16.7649 32.4081C16.7649 31.4481 16.4499 30.7014 15.8199 30.1681C15.1899 29.6134 14.3394 29.3361 13.2684 29.3361H8.92141V35.3521H13.3629Z" fill="#29313D"/>
<path d="M222.463 8.48438C212.632 8.48438 205.578 16.3222 204.764 24.7332C204.103 31.5348 207.206 38.0497 212.849 41.7426C214.162 42.6025 215.019 43.9804 215.269 45.5237H214.455V47.3316H215.345V49.1395H214.455V50.9363H216.234C216.234 53.4277 218.231 55.456 220.683 55.456H224.243C226.695 55.456 228.692 53.4277 228.692 50.9363H230.471V49.1285H229.582V47.3206H230.471V45.5127H229.658C229.896 43.9584 230.743 42.5915 232.045 41.7537C237.188 38.4135 240.248 32.7253 240.248 26.5411C240.248 16.5867 232.273 8.48438 222.463 8.48438ZM224.243 53.6482H220.683C219.208 53.6482 218.014 52.4356 218.014 50.9363H226.912C226.912 52.4356 225.708 53.6482 224.243 53.6482ZM227.802 49.1285H217.135V47.3206H227.802V49.1285ZM231.079 40.2434C229.267 41.423 228.106 43.3521 227.845 45.5237H217.07C216.809 43.3521 215.638 41.4119 213.815 40.2214C208.736 36.9033 205.947 31.0387 206.533 24.9096C207.26 17.3474 213.912 10.2922 222.463 10.2922C231.285 10.2922 238.469 17.5899 238.469 26.5521C238.469 32.119 235.702 37.234 231.079 40.2434Z" fill="#6600CC"/>
<path d="M249.241 24.7441H243.902V26.552H249.241V24.7441Z" fill="#6600CC"/>
<path d="M201.034 24.7441H195.695V26.552H201.034V24.7441Z" fill="#6600CC"/>
<path d="M223.583 5.96757L223.583 0.543945L221.803 0.543945L221.803 5.96757L223.583 5.96757Z" fill="#6600CC"/>
<path d="M237.277 41.9689L244.195 48.9971L245.454 47.7187L238.535 40.6906L237.277 41.9689Z" fill="#6600CC"/>
<path d="M208.634 10.3267L201.674 3.25586L200.415 4.53421L207.376 11.6051L208.634 10.3267Z" fill="#6600CC"/>
<path d="M199.434 47.7595L200.692 49.0378L207.649 41.9707L206.391 40.6924L199.434 47.7595Z" fill="#6600CC"/>
<path d="M236.298 10.3242L237.556 11.6025L244.535 4.51361L243.276 3.23526L236.298 10.3242Z" fill="#6600CC"/>
<path fill-rule="evenodd" clip-rule="evenodd" d="M215.926 24.9953C215.933 26.0834 216.818 27.3457 218.928 27.3457V27.9957V28.6457C216.223 28.6457 214.659 26.9121 214.646 25.0042C214.64 24.0741 215.012 23.148 215.754 22.46C216.497 21.7704 217.573 21.3538 218.928 21.3538V22.6538C217.834 22.6538 217.084 22.9861 216.617 23.42C216.147 23.8555 215.922 24.4274 215.926 24.9953ZM222.777 33.5371V38.6753H221.498V32.8871C221.498 32.5281 221.784 32.2371 222.138 32.2371H225.668C226.322 32.2371 226.753 32.0004 227.024 31.6906C227.306 31.369 227.457 30.9213 227.451 30.4496C227.445 29.9776 227.283 29.523 226.993 29.1945C226.712 28.8774 226.285 28.6457 225.668 28.6457H218.928V27.9957V27.3457H225.668C226.637 27.3457 227.414 27.7255 227.944 28.3256C228.465 28.9142 228.722 29.6824 228.731 30.4333C228.74 31.1844 228.502 31.9595 227.98 32.5551C227.448 33.1624 226.66 33.5371 225.668 33.5371H222.777Z" fill="#6600CC"/>
<path fill-rule="evenodd" clip-rule="evenodd" d="M225.708 25.1809V23.8809H231.125C232.308 23.8809 233.245 24.3186 233.881 25.0203C234.508 25.712 234.807 26.6196 234.804 27.5087C234.801 28.3977 234.496 29.3034 233.869 29.9932C233.233 30.6931 232.3 31.1321 231.125 31.1321H216.56V29.8321H231.125C231.967 29.8321 232.551 29.5272 232.929 29.1112C233.316 28.6851 233.523 28.103 233.525 27.5042C233.527 26.9055 233.324 26.3254 232.94 25.9011C232.564 25.4871 231.979 25.1809 231.125 25.1809H225.708Z" fill="#6600CC"/>
<path fill-rule="evenodd" clip-rule="evenodd" d="M215.677 18.9844C214.162 18.5917 212.682 19.3025 211.893 20.4839C211.259 21.4339 211.074 22.6658 211.566 23.881C210.536 25.5265 210.092 27.0615 210.138 28.4508C210.185 29.9024 210.765 31.1315 211.653 32.095C213.246 33.8255 215.831 34.7094 218.247 34.6411V36.2295H219.527V33.9469C219.527 33.7625 219.45 33.5868 219.315 33.4635C219.18 33.3402 218.999 33.281 218.819 33.3005C216.529 33.5484 214.01 32.7525 212.587 31.2069C211.887 30.4472 211.453 29.5104 211.417 28.4075C211.386 27.473 211.64 26.3749 212.327 25.1218C212.417 25.2286 212.513 25.3343 212.616 25.4389L213.521 24.5197C212.317 23.296 212.402 22.0379 212.952 21.2136C213.533 20.3435 214.645 19.9025 215.704 20.363C215.941 20.4659 216.184 20.6165 216.424 20.826L217.257 19.8389C217.128 19.7269 216.997 19.625 216.863 19.5329C217.341 18.8826 218.064 18.2365 218.967 17.9602C219.936 17.6634 221.236 17.7563 222.839 18.9827C222.721 19.1053 222.61 19.2364 222.508 19.3758L223.532 20.155C224.132 19.3408 225.18 18.9233 226.132 19.0383C227.037 19.1475 227.856 19.735 228.101 21.0093C228.168 21.3589 228.193 21.7679 228.159 22.242L229.436 22.336C229.455 22.065 229.459 21.8048 229.448 21.5554C230.047 21.6173 230.713 21.796 231.243 22.1505C231.605 22.393 231.896 22.7114 232.075 23.1294C232.253 23.5478 232.339 24.1116 232.219 24.8764L233.482 25.0822C233.634 24.1186 233.541 23.2971 233.249 22.6119C232.956 21.9264 232.482 21.4231 231.947 21.0647C231.09 20.4917 230.055 20.2741 229.225 20.236C228.744 18.716 227.569 17.9026 226.283 17.7473C225.487 17.6513 224.65 17.8064 223.913 18.186C221.93 16.5485 220.113 16.2513 218.597 16.7155C217.261 17.1247 216.273 18.0929 215.677 18.9844Z" fill="#6600CC"/>
<path fill-rule="evenodd" clip-rule="evenodd" d="M222.218 40.1267C222.442 40.1267 222.623 39.9422 222.623 39.7147C222.623 39.4871 222.442 39.3027 222.218 39.3027C221.994 39.3027 221.812 39.4871 221.812 39.7147C221.812 39.9422 221.994 40.1267 222.218 40.1267ZM222.218 41.4267C223.148 41.4267 223.903 40.6602 223.903 39.7147C223.903 38.7692 223.148 38.0027 222.218 38.0027C221.287 38.0027 220.532 38.7692 220.532 39.7147C220.532 40.6602 221.287 41.4267 222.218 41.4267Z" fill="#6600CC"/>
<path fill-rule="evenodd" clip-rule="evenodd" d="M218.846 37.7419C219.07 37.7419 219.252 37.5574 219.252 37.3299C219.252 37.1024 219.07 36.9179 218.846 36.9179C218.623 36.9179 218.441 37.1024 218.441 37.3299C218.441 37.5574 218.623 37.7419 218.846 37.7419ZM218.846 39.0419C219.777 39.0419 220.532 38.2754 220.532 37.3299C220.532 36.3844 219.777 35.6179 218.846 35.6179C217.916 35.6179 217.161 36.3844 217.161 37.3299C217.161 38.2754 217.916 39.0419 218.846 39.0419Z" fill="#6600CC"/>
<path fill-rule="evenodd" clip-rule="evenodd" d="M215.421 30.7819C215.645 30.7819 215.826 30.5975 215.826 30.37C215.826 30.1424 215.645 29.958 215.421 29.958C215.197 29.958 215.015 30.1424 215.015 30.37C215.015 30.5975 215.197 30.7819 215.421 30.7819ZM215.421 32.0819C216.351 32.0819 217.106 31.3155 217.106 30.37C217.106 29.4244 216.351 28.658 215.421 28.658C214.49 28.658 213.735 29.4244 213.735 30.37C213.735 31.3155 214.49 32.0819 215.421 32.0819Z" fill="#6600CC"/>
<path fill-rule="evenodd" clip-rule="evenodd" d="M220.045 22.4565C220.269 22.4565 220.451 22.272 220.451 22.0445C220.451 21.817 220.269 21.6325 220.045 21.6325C219.821 21.6325 219.64 21.817 219.64 22.0445C219.64 22.272 219.821 22.4565 220.045 22.4565ZM220.045 23.7565C220.976 23.7565 221.73 22.99 221.73 22.0445C221.73 21.099 220.976 20.3325 220.045 20.3325C219.114 20.3325 218.36 21.099 218.36 22.0445C218.36 22.99 219.114 23.7565 220.045 23.7565Z" fill="#6600CC"/>
<path fill-rule="evenodd" clip-rule="evenodd" d="M224.67 24.9531C224.894 24.9531 225.076 24.7686 225.076 24.5411C225.076 24.3136 224.894 24.1291 224.67 24.1291C224.446 24.1291 224.265 24.3136 224.265 24.5411C224.265 24.7686 224.446 24.9531 224.67 24.9531ZM224.67 26.2531C225.601 26.2531 226.356 25.4866 226.356 24.5411C226.356 23.5956 225.601 22.8291 224.67 22.8291C223.74 22.8291 222.985 23.5956 222.985 24.5411C222.985 25.4866 223.74 26.2531 224.67 26.2531Z" fill="#6600CC"/>
</svg>
